<svg width="512" height="512" viewBox="0 0 512 512" xmlns="http://www.w3.org/2000/svg">
  <defs>
    <linearGradient id="swoosh" x1="62" y1="410" x2="450" y2="164" gradientUnits="userSpaceOnUse">
      <stop stop-color="#0A62C8" offset="0"/>
      <stop stop-color="#0D7BE9" offset="1"/>
    </linearGradient>
  </defs>
  <path d="M416.4 160.2c46.7 21.4 69.9 73.8 75.5 109.5 1.4 9.1-4.6 17.7-13.7 19.2-9 1.4-17.5-4.7-19-13.4-6.1-36.9-25.3-70.4-55.2-84.1-33-15-74-18-136-11.4-57.6 6.1-102.9 24-134.4 53.9-27 25.3-41.9 57.3-43.9 94.9-.5 9.2-8.2 16.2-17.4 15.7-9.2-.5-16.3-8.2-15.8-17.4 2.5-45.5 20.7-85.3 52.9-115.7 37-34.7 88.7-55.4 155.7-62.6 71.8-7.7 118.7-3.3 150.3 10.4z" fill="#0A62C8"/>
  <path d="M419.6 181.4c38.7 23.4 58.9 73.3 55.4 110.3-.8 8.8-8.6 15.4-17.4 14.5-8.8-.8-15.4-8.6-14.6-17.3 2.4-25.7-11.7-62.3-38.3-78.4-44.6-27.1-178.6-18.9-227.6-12.9-51.4 6.1-82.1 22.4-102.5 50.4-18.5 25.3-24 59.7-17.3 97.2 1.6 8.6-4.1 16.8-12.7 18.4s-16.8-4.1-18.4-12.7c-8.6-46.5-.8-89.4 23.4-122.6 26.6-36.5 66.9-57.8 127.6-65 63-7.4 202.9-15.1 242.4 18.1z" fill="url(#swoosh)"/>
  <path d="M376.7 228.8c-13.3-22-40.7-36.3-68.8-36.3H226c-42.8 0-82.1 21.7-105.7 57.1l-20.3 30.5c-3.8 5.7 0.3 13.4 7.1 13.4h284.6c7.2 0 11.6-8 7.5-14l-22.5-32.5z" fill="#0B5BC3"/>
  <path d="M181.7 253.5l-34.6 52.1H157l44.9-52.1h-20.2zm71.2 0-44.9 52.1h22.4l44.9-52.1h-22.4zm71.2 0-44.9 52.1h20.2l44.9-52.1h-20.2zm71.3 0-44.9 52.1h26l29.6-34.3c5.8-6.7 1-17.7-7.6-17.7h-3.1z" fill="#fff" opacity=".4"/>
  <path d="M162.8 368.5c0 24.3-19.7 44-44 44s-44-19.7-44-44 19.7-44 44-44 44 19.7 44 44zm212.4-44c-24.3 0-44 19.7-44 44s19.7 44 44 44 44-19.7 44-44-19.7-44-44-44z" fill="#0A62C8"/>
  <path d="M143.6 368.5a24.8 24.8 0 1 1-49.6 0 24.8 24.8 0 0 1 49.6 0zm212.4 0a24.8 24.8 0 1 1 49.6 0 24.8 24.8 0 0 1-49.6 0z" fill="#fff" opacity=".2"/>
  <path d="M149.8 199.5l8.9-24.6c1-2.9 5-3.1 6.3-.3l9.7 24.9c1.1 2.9-1.5 5.9-4.4 4.9l-18.6-6c-2.8-.9-3.2-4.4-.9-5.9zm183.4-22.8 7.2-19.8c.8-2.4 4.2-2.5 5.3-.2l7.8 20c.9 2.4-1.3 4.8-3.7 4l-15-4.9c-2.3-.7-2.7-3.5-.8-4.7zm42.4 24.1 7.1-19.5c.8-2.3 4-2.4 5.1-.2l7.7 19.7c.9 2.3-1.3 4.7-3.6 3.9l-14.7-4.8c-2.3-.8-2.7-3.4-.9-4.6z" fill="#0D7BE9"/>
</svg>
